<svg width="156" height="156" viewBox="0 0 156 156" fill="none" xmlns="http://www.w3.org/2000/svg">
<path d="M15.4179 85.4175C8.95104 81.8297 9.00675 72.5113 15.516 69.0012V69.0012C20.3445 66.3974 21.9071 60.2171 18.8963 55.6313V55.6313C14.8375 49.4493 19.2173 41.2241 26.6123 41.141V41.141C32.0977 41.0794 36.3534 36.3332 35.8186 30.8735V30.8735C35.0977 23.5133 42.7983 18.2657 49.3847 21.6288V21.6288C54.2705 24.1234 60.2444 21.8986 62.3081 16.8157V16.8157C65.0902 9.9636 74.3474 8.89569 78.6166 14.9344V14.9344C81.7834 19.4138 88.107 20.2201 92.2964 16.6785V16.6785C97.9442 11.9041 106.637 15.2606 107.611 22.5916V22.5916C108.333 28.0296 113.558 31.6822 118.913 30.4932V30.4932C126.133 28.8904 132.271 35.9022 129.726 42.8461V42.8461C127.838 47.9969 130.767 53.6591 136.062 55.0951V55.0951C143.199 57.031 145.375 66.0919 139.895 71.0579V71.0579C135.83 74.7415 135.792 81.1162 139.813 84.8482V84.8482C145.233 89.8793 142.949 98.9136 135.789 100.764V100.764C130.477 102.137 127.481 107.763 129.307 112.936V112.936C131.768 119.91 125.547 126.848 118.347 125.159V125.159C113.007 123.906 107.739 127.496 106.951 132.925V132.925C105.89 140.244 97.1574 143.496 91.5671 138.654V138.654C87.4203 135.063 81.0876 135.794 77.8674 140.235V140.235C73.5264 146.222 64.2826 145.044 61.5826 138.159V138.159C59.5799 133.052 53.633 130.755 48.7177 133.191V133.191C42.0915 136.476 34.4542 131.136 35.2631 123.785V123.785C35.8632 118.332 31.6645 113.536 26.1802 113.408V113.408C18.7868 113.237 14.5056 104.96 18.6381 98.8268V98.8268C21.7034 94.2773 20.2149 88.0788 15.4179 85.4175V85.4175Z" fill="url(#paint0_linear_19_6)"/>
<defs>
<linearGradient id="paint0_linear_19_6" x1="101.805" y1="0.603161" x2="106.837" y2="117.917" gradientUnits="userSpaceOnUse">
<stop stop-color="#237249"/>
<stop offset="1" stop-color="#35C66B"/>
</linearGradient>
</defs>
</svg>
